<svg width="208" height="420" viewBox="0 0 208 420" fill="none" xmlns="http://www.w3.org/2000/svg">
<path d="M-1.52588e-05 420C27.3149 420 54.3624 414.568 79.5981 404.015C104.834 393.461 127.764 377.993 147.078 358.492C166.393 338.992 181.714 315.842 192.167 290.364C202.62 264.885 208 237.578 208 210C208 182.422 202.62 155.115 192.167 129.636C181.714 104.158 166.393 81.0079 147.078 61.5076C127.764 42.0073 104.834 26.5388 79.5981 15.9853C54.3624 5.43181 27.3149 -1.20545e-06 -1.52588e-05 0V10.4525C25.9554 10.4525 51.6566 15.614 75.6362 25.6422C99.6159 35.6704 121.404 50.3689 139.758 68.8986C158.111 87.4283 172.669 109.426 182.602 133.636C192.535 157.847 197.647 183.795 197.647 210C197.647 236.205 192.535 262.153 182.602 286.364C172.669 310.574 158.111 332.572 139.758 351.101C121.404 369.631 99.6159 384.33 75.6362 394.358C51.6566 404.386 25.9554 409.547 -1.52588e-05 409.547V420Z" fill="white"/>
</svg>
